<svg xmlns="http://www.w3.org/2000/svg" viewBox="0 0 32 32">
  <rect width="32" height="32" rx="6" fill="#0048AB"/>
  <g fill="#fff">
    <!-- H -->
    <rect x="5" y="9" width="2.4" height="14" rx="0.5"/>
    <rect x="12.6" y="9" width="2.4" height="14" rx="0.5"/>
    <rect x="5" y="14.8" width="10" height="2.4" rx="0.5"/>
    <!-- S -->
    <path d="M18.2 13.2c0-2.3 1.9-4.2 4.5-4.2 2.4 0 4.1 1.5 4.2 3.5h-2.4c-.1-0.8-.8-1.4-1.8-1.4-1.1 0-1.9.7-1.9 1.6 0 .8.6 1.3 1.8 1.6l1.2.3c2.2.5 3.4 1.6 3.4 3.6 0 2.5-2 4.3-4.7 4.3-2.7 0-4.4-1.6-4.5-3.8h2.5c.1 1 .9 1.7 2.1 1.7 1.2 0 2-.7 2-1.7 0-.9-.6-1.4-1.8-1.7l-1.3-.3c-2-.5-3.3-1.7-3.3-3.5z"/>
  </g>
</svg>
